<svg width="49" height="49" viewBox="0 0 49 49" fill="none" xmlns="http://www.w3.org/2000/svg">
<path d="M0.444015 20.3443L0.439803 20.3654L0.435591 20.3948C0.427166 20.437 0.422954 20.4791 0.418742 20.517V20.5212V20.5254C0.418742 20.5338 0.418742 20.5423 0.41453 20.5507C0.410318 20.576 0.406106 20.6012 0.406106 20.6265L0.397682 20.6897V20.7023L0.39347 20.7234V20.7318V20.7402V20.7444L0.380833 20.7655V20.7824V20.7866L0.376621 20.795C0.368197 20.875 0.355561 20.9551 0.347136 21.0351C0.338712 21.1067 0.330288 21.1783 0.321864 21.2499C0.317652 21.2794 0.317652 21.3047 0.313439 21.3299V21.3341V21.3384C0.305015 21.4268 0.292379 21.511 0.283955 21.5995C0.27553 21.6627 0.271318 21.7301 0.267106 21.7975V21.8059L0.258682 21.8691C0.25447 21.8943 0.25447 21.9196 0.250258 21.9449C0.250258 21.9702 0.250258 21.9996 0.246046 22.0249C0.246046 22.0376 0.241834 22.0544 0.241834 22.067C0.241834 22.0881 0.237621 22.1092 0.237621 22.1302C0.237621 22.1555 0.233409 22.1808 0.233409 22.2103C0.233409 22.2229 0.233409 22.2355 0.229197 22.2482C0.220773 22.3366 0.216561 22.4293 0.208137 22.5388V22.543C0.203925 22.5893 0.203925 22.6357 0.199712 22.6778C0.1955 22.7241 0.1955 22.7747 0.191288 22.821V22.8252V22.8294V22.8378V22.8421C0.191288 22.8463 0.191288 22.8505 0.191288 22.8589C0.191288 22.8715 0.191288 22.88 0.191288 22.8926V22.9052V22.9221C0.187076 22.9768 0.187076 23.0274 0.182864 23.0821C0.182864 23.1032 0.182864 23.1285 0.178652 23.1495C0.17444 23.2464 0.170228 23.3391 0.170228 23.4318C0.170228 23.4444 0.170228 23.4612 0.170228 23.4781V23.5118C0.170228 23.5876 0.166016 23.6634 0.166016 23.7434V23.7856V23.8066V23.8867C0.166016 23.9119 0.166016 23.933 0.166016 23.9583C0.166016 23.9751 0.166016 23.992 0.166016 24.0088C0.166016 24.0257 0.166016 24.0425 0.166016 24.0593C0.166016 24.0804 0.166016 24.1057 0.166016 24.1267V24.2026V24.2657C0.233409 28.8316 2.06146 33.1153 5.31742 36.3207C8.57339 39.5345 12.8866 41.3036 17.4609 41.3036C18.1896 41.3036 18.9099 41.2572 19.6217 41.1688C19.9461 41.1267 20.2662 41.0845 20.5863 41.0256C18.2191 39.5935 16.172 37.677 14.563 35.373C13.9817 34.539 13.4636 33.6629 13.0214 32.7615C12.9203 32.5593 12.8276 32.3529 12.7349 32.1465C12.7265 32.1255 12.7139 32.1002 12.7055 32.0791C11.585 29.5561 10.9996 26.8225 10.9996 24.0088C10.9996 19.9189 12.2337 15.989 14.5672 12.6446C15.1022 11.878 15.6876 11.1536 16.3195 10.4754C18.3665 8.2683 20.877 6.55819 23.7075 5.46306C24.5668 5.1303 25.4387 4.86073 26.3316 4.65013C27.8143 4.30052 29.3391 4.12783 30.8849 4.12783C34.4989 4.12783 37.9697 5.08818 41.0024 6.88674L40.9982 6.88252C40.9729 6.85725 40.9392 6.82777 40.914 6.79828C40.8761 6.76037 40.8381 6.72668 40.8002 6.68877C40.7876 6.67613 40.775 6.66771 40.7665 6.65507L40.7581 6.64665L40.7539 6.64244L40.7497 6.63401C40.716 6.60453 40.6781 6.57083 40.6444 6.53713C40.6065 6.50344 40.5728 6.46974 40.5349 6.43183L40.5307 6.42762L40.5264 6.42341L40.518 6.41498C40.5096 6.41077 40.5054 6.40235 40.497 6.39814C40.4548 6.36023 40.4127 6.31811 40.3706 6.2802L40.3622 6.27177L40.3074 6.22123C40.299 6.2128 40.2906 6.20438 40.2779 6.19596C40.2148 6.1412 40.1558 6.08644 40.0968 6.03169C40.0252 5.9685 39.962 5.90954 39.8946 5.85478C39.8736 5.83793 39.8525 5.81687 39.8272 5.80002C39.7809 5.76211 39.7346 5.71999 39.6882 5.68208L39.5956 5.60627L39.545 5.56415V5.55993L39.5071 5.53045L39.4861 5.5136C39.4313 5.46727 39.3765 5.42515 39.3218 5.37881L39.3134 5.37039L39.3091 5.36618L39.3049 5.36197L39.2965 5.35775C39.2544 5.32406 39.2165 5.29036 39.1744 5.26088L39.1702 5.25666H39.1659H39.1617C39.0311 5.15136 38.8964 5.04606 38.7616 4.94497L38.7574 4.94076L38.7531 4.93655C38.7152 4.90706 38.6815 4.88179 38.6436 4.85231L38.5973 4.81861L38.572 4.79755C38.5678 4.79334 38.5594 4.78912 38.5552 4.78491L38.551 4.7807L38.5468 4.77649L38.5425 4.77228L38.5341 4.76806L38.4583 4.71331L38.4288 4.69225L38.3235 4.61643C38.3109 4.60801 38.3025 4.59958 38.2898 4.59116C38.2688 4.57852 38.2519 4.56167 38.2308 4.54904L38.1887 4.51955H38.1845H38.1803C38.1382 4.49007 38.1003 4.46058 38.0581 4.4311C38.0497 4.42267 38.0371 4.41846 38.0287 4.41004L38.016 4.40161L38.0076 4.39319C37.9065 4.32159 37.8096 4.25419 37.7085 4.18259H37.7043H37.7001C37.6538 4.1531 37.6117 4.11941 37.5653 4.08992C37.5527 4.0815 37.5443 4.07307 37.5316 4.06886L37.5232 4.05201C37.4558 4.00989 37.3884 3.96356 37.321 3.91723C37.3168 3.91723 37.3126 3.91301 37.3084 3.91301L37.3042 3.9088L37.2958 3.90459C37.2831 3.89617 37.2663 3.88774 37.2536 3.87511C37.2031 3.84141 37.1568 3.81192 37.1062 3.78244L37.0978 3.77823L37.0894 3.77402C37.0178 3.72768 36.9419 3.68135 36.8703 3.63502L36.8619 3.63081L36.8535 3.62238C36.7777 3.57605 36.7019 3.5255 36.626 3.48338L36.5039 3.41178C36.4828 3.39072 36.4618 3.38229 36.4449 3.36966C36.4239 3.35702 36.3986 3.34017 36.3733 3.32754H36.3691L36.3649 3.32332C36.3522 3.3149 36.3354 3.30648 36.3228 3.29805C36.268 3.26435 36.2132 3.23487 36.1585 3.20117L36.1164 3.1759C36.0953 3.16327 36.0785 3.15484 36.0616 3.1422C36.0111 3.11272 35.9605 3.08324 35.91 3.05375C35.9058 3.04954 35.9016 3.04954 35.8931 3.04533C35.5519 2.85578 35.2066 2.67045 34.8569 2.49776C34.8485 2.49355 34.8401 2.48933 34.8317 2.48512H34.8275H34.8232H34.819C34.7432 2.443 34.6674 2.4093 34.5874 2.3714L34.381 2.27452C34.3768 2.27031 34.3683 2.27031 34.3641 2.26609C34.3599 2.26609 34.3557 2.26188 34.3515 2.26188L34.3473 2.25767H34.3431C34.0988 2.14394 33.8755 2.04285 33.6607 1.95019L33.6565 1.94598L33.6481 1.94176H33.6439H33.6396C33.5891 1.91649 33.5343 1.89543 33.4838 1.87437L33.4627 1.86595L33.4459 1.85752H33.4417L33.349 1.81961C33.3153 1.80698 33.2816 1.79434 33.2479 1.77749C33.2311 1.76907 33.2184 1.76486 33.2016 1.76065C32.9699 1.66798 32.7804 1.59216 32.6077 1.52898L32.5024 1.49107L32.4897 1.48686L32.3802 1.44474C32.0854 1.33944 31.7821 1.23414 31.4746 1.13726H31.4704H31.4662C31.462 1.13726 31.4578 1.13305 31.4494 1.13305C31.3904 1.1162 31.3314 1.09514 31.2724 1.07829C31.2135 1.06144 31.1545 1.04038 31.0913 1.02353C31.0576 1.0109 31.0197 1.00247 30.986 0.989837C30.8512 0.951928 30.7249 0.914019 30.6069 0.880323H30.6027H30.5985H30.5943C30.5732 0.863475 30.5564 0.859262 30.5395 0.85505C30.5143 0.846626 30.489 0.842414 30.4595 0.83399L30.4427 0.829778L30.4174 0.821354C30.1647 0.753961 29.9077 0.694992 29.6508 0.631811C29.4991 0.598114 29.3475 0.564417 29.1959 0.530721C28.9389 0.475964 28.682 0.421207 28.4208 0.374874C28.324 0.358026 28.2271 0.341178 28.1302 0.324329H28.126H28.1218H28.1176C28.0207 0.307481 27.9238 0.290633 27.8269 0.277997C27.7806 0.269573 27.7385 0.26536 27.6922 0.256936C27.6374 0.248512 27.5784 0.240088 27.5237 0.231664C27.2457 0.193755 26.9677 0.160059 26.6897 0.130574C26.1505 0.0758173 25.6114 0.0379086 25.068 0.0168483C24.7732 0.00842414 24.4699 0 24.1708 0C23.6612 0 23.1557 0.0168483 22.646 0.0505449C22.5913 0.0547569 22.5407 0.0547569 22.486 0.058969C21.9258 0.0968776 21.3656 0.155847 20.8138 0.231664C20.7127 0.2443 20.6158 0.261148 20.5147 0.273785C20.5105 0.273785 20.5105 0.273785 20.5063 0.273785H20.5021L0.444015 20.3359V20.3443Z" fill="#404040"/>
<path d="M47.9005 27.6397L47.9047 27.6229L47.9089 27.6018C47.9131 27.5681 47.9174 27.5344 47.9216 27.5007V27.4923V27.4797L47.9258 27.467C47.9342 27.4249 47.9384 27.3786 47.9468 27.3323L47.951 27.3028L47.9553 27.2733C47.9595 27.2607 47.9595 27.2438 47.9637 27.2312L47.9805 27.0795L47.9932 26.9742C48.0058 26.8731 48.0184 26.7805 48.0269 26.6878V26.6752C48.0353 26.5867 48.0479 26.5025 48.0521 26.4182C48.0606 26.3466 48.0648 26.2792 48.0732 26.2161V26.2118L48.0816 26.1487C48.0858 26.1023 48.09 26.056 48.0943 26.0097V25.9928V25.976C48.1027 25.917 48.1027 25.8538 48.1069 25.7949V25.7864V25.7696C48.1153 25.6811 48.1195 25.5885 48.128 25.4832V25.4747C48.1364 25.3821 48.1406 25.2894 48.1448 25.1967V25.1715V25.1336V25.0956C48.149 25.0198 48.1532 24.9398 48.1532 24.864C48.1574 24.7587 48.1616 24.6618 48.1616 24.5607V24.5481V24.5017C48.1616 24.4301 48.1659 24.3585 48.1659 24.2869V24.2069V24.1943C48.1659 24.1311 48.1659 24.0721 48.1659 24.0089C48.1659 23.9458 48.1659 23.8784 48.1659 23.8152V23.811V23.7478C48.0985 19.1819 46.2704 14.9024 43.0187 11.6928C39.7627 8.47903 35.4495 6.70996 30.8709 6.70996C29.8137 6.70996 28.7691 6.80263 27.7456 6.99217C30.1128 8.42427 32.1641 10.3408 33.7689 12.6448C36.1024 15.9892 37.3365 19.919 37.3365 24.0089C37.3365 28.0989 36.1024 32.0287 33.7689 35.3731C31.4901 38.6375 28.331 41.1226 24.6286 42.5547C22.3456 43.4392 19.9321 43.8899 17.4554 43.8899C13.8414 43.8899 10.3706 42.9296 7.33789 41.1352L7.3421 41.1394L7.35474 41.1521L7.36738 41.1647C7.38001 41.1815 7.39686 41.1942 7.4095 41.2068L7.45583 41.2532C7.49374 41.2911 7.53165 41.329 7.57377 41.3669L7.58219 41.3753L7.59062 41.3837C7.6538 41.4469 7.72962 41.5185 7.80543 41.5859L7.81807 41.5943L7.8265 41.6028C7.87704 41.6491 7.92337 41.6954 7.97392 41.7418L7.97813 41.746L7.98234 41.7502C8.0708 41.8302 8.15504 41.9102 8.24771 41.9861L8.25192 41.9903L8.25613 41.9945C8.3151 42.045 8.37407 42.0998 8.43304 42.1503L8.44567 42.1587L8.48358 42.1924H8.4878L8.66049 42.3399L8.69419 42.3694L8.70261 42.3778C8.74895 42.4157 8.79528 42.4536 8.84161 42.4915L8.85846 42.5041L8.87531 42.521C8.91743 42.5547 8.95955 42.5926 9.0101 42.6305L9.02695 42.6431L9.04379 42.6558C9.0817 42.6853 9.1154 42.7147 9.1491 42.7442L9.16173 42.7527L9.17016 42.7611C9.29652 42.8664 9.43131 42.9675 9.5661 43.0686C9.59558 43.0938 9.62507 43.1149 9.65455 43.1359C9.68825 43.1612 9.72194 43.1865 9.75564 43.2118C9.7767 43.2244 9.79355 43.237 9.8104 43.2539L9.8441 43.2792C9.89885 43.3213 9.9494 43.3592 10.0042 43.4013L10.0547 43.4392C10.08 43.4603 10.1095 43.4771 10.1347 43.4982L10.1432 43.5066L10.1558 43.515C10.1937 43.5445 10.2358 43.574 10.2737 43.6035L10.3159 43.633C10.4127 43.7046 10.5138 43.772 10.6149 43.8436L10.6233 43.8478L10.6318 43.8562C10.6739 43.8857 10.7202 43.9152 10.7665 43.9447L10.8002 43.9657L10.9098 44.0373L11.0277 44.1174C11.0867 44.1553 11.1498 44.1974 11.213 44.2353C11.2762 44.2774 11.3394 44.3153 11.3984 44.3532H11.55L11.8238 44.6144C11.8659 44.6397 11.908 44.6649 11.9502 44.6902C12.0344 44.7407 12.1186 44.7871 12.1987 44.8334L12.2071 44.8376L12.2155 44.8418C12.2829 44.8797 12.3461 44.9177 12.4135 44.9556C12.7673 45.1577 13.1253 45.3473 13.4876 45.5242C13.5676 45.5621 13.6476 45.6042 13.7234 45.6421C13.7361 45.6506 13.7487 45.6548 13.7571 45.659C13.833 45.6927 13.9046 45.7306 13.9804 45.7643C14.2078 45.8696 14.4395 45.9749 14.6627 46.0718H14.667L14.6712 46.076C14.7259 46.1012 14.7849 46.1265 14.8397 46.1476C14.8565 46.156 14.8734 46.1602 14.8944 46.1729C14.9702 46.2023 15.046 46.236 15.1219 46.2655C15.3072 46.3413 15.5052 46.4172 15.7158 46.4972L15.7242 46.5014L15.7326 46.5056C15.7958 46.5309 15.8632 46.5561 15.9264 46.5772L15.9348 46.5814L15.9432 46.5856C16.2507 46.6994 16.554 46.8004 16.8446 46.8931L16.853 46.8973L16.8615 46.9015C16.9204 46.9226 16.9794 46.9394 17.0384 46.9605H17.0468L17.0552 46.9647C17.1437 46.9942 17.2321 47.0195 17.3206 47.049L17.3964 47.07C17.5017 47.0995 17.6112 47.129 17.7165 47.1585C17.7755 47.1753 17.8303 47.188 17.8808 47.2048L17.8934 47.209C18.5547 47.3859 19.2287 47.5376 19.89 47.6555L19.8984 47.6597H19.9068C19.9869 47.6723 20.0753 47.6892 20.1806 47.706H20.189H20.1932C20.2985 47.7229 20.3912 47.7397 20.4712 47.7482H20.4839L20.4965 47.7524C20.5892 47.7692 20.6819 47.7819 20.7787 47.7945H20.7872C21.8949 47.9461 23.0238 48.0262 24.1442 48.0262C25.2688 48.0262 26.3977 47.9461 27.5055 47.7945L27.5307 47.7903C27.6192 47.7776 27.7077 47.765 27.7961 47.7524L27.8087 47.7482H27.8172L47.8752 27.6903C47.9005 27.6608 47.9005 27.6524 47.9005 27.6397Z" fill="#404040"/>
</svg>
